STARTFONT 2.1
FONT -Monotype-Arial Narrow-Bold-I-Normal--17-120-100-100-P-75-iso8859-2
SIZE 12 100 100
FONTBOUNDINGBOX 17 21 -2 -5

STARTPROPERTIES 24
FOUNDRY "Monotype"
FAMILY_NAME "Arial Narrow"
WEIGHT_NAME "Bold"
SLANT "I"
SETWIDTH_NAME "Normal"
ADD_STYLE_NAME ""
PIXEL_SIZE 17
POINT_SIZE 120
RESOLUTION_X 100
RESOLUTION_Y 100
SPACING "P"
AVERAGE_WIDTH 75
CHARSET_REGISTRY "iso8859"
CHARSET_ENCODING "2"
FACE_NAME "Arial Narrow Bold Italic ISO Latin2"
_DEC_DEVICE_FONTNAMES "PS=arialnarrow-bit-lat2"
COPYRIGHT "Copyright (c) 1994 Monotype Typography Ltd."
CAP_HEIGHT 15
X_HEIGHT 10
WEIGHT 10
QUAD_WIDTH 9
DEFAULT_CHAR 160
FONT_DESCENT 5
FONT_ASCENT 16
ENDPROPERTIES

CHARS 191

STARTCHAR space
ENCODING 32
SWIDTH 228 0
DWIDTH 4 0
BBX 0 0 0 0
BITMAP
ENDCHAR

STARTCHAR exclam
ENCODING 33
SWIDTH 273 0
DWIDTH 5 0
BBX 5 12 1 0
BITMAP
18
18
18
30
30
30
60
60
60
00
C0
C0
ENDCHAR

STARTCHAR quotedbl
ENCODING 34
SWIDTH 389 0
DWIDTH 7 0
BBX 6 5 1 7
BITMAP
6C
6C
D8
D8
D8
ENDCHAR

STARTCHAR numbersign
ENCODING 35
SWIDTH 456 0
DWIDTH 8 0
BBX 8 12 0 0
BITMAP
36
36
36
FF
FF
6C
6C
FF
FF
6C
6C
6C
ENDCHAR

STARTCHAR dollar
ENCODING 36
SWIDTH 456 0
DWIDTH 8 0
BBX 7 15 1 -2
BITMAP
04
1C
3E
6E
68
78
38
1C
16
D6
D6
7C
38
20
20
ENDCHAR

STARTCHAR percent
ENCODING 37
SWIDTH 729 0
DWIDTH 12 0
BBX 11 12 1 0
BITMAP
3060
78C0
D980
DB00
F300
6600
0CC0
0DE0
1B60
1B60
33C0
6180
ENDCHAR

STARTCHAR ampersand
ENCODING 38
SWIDTH 592 0
DWIDTH 10 0
BBX 9 12 1 0
BITMAP
0C00
1E00
3600
3600
1C00
3800
6C00
CD80
CF00
C600
7F00
3A00
ENDCHAR

STARTCHAR quoteright
ENCODING 39
SWIDTH 228 0
DWIDTH 4 0
BBX 3 5 1 7
BITMAP
60
60
20
40
80
ENDCHAR

STARTCHAR parenleft
ENCODING 40
SWIDTH 273 0
DWIDTH 5 0
BBX 5 15 1 -3
BITMAP
18
30
30
60
60
60
C0
C0
C0
C0
C0
C0
60
60
30
ENDCHAR

STARTCHAR parenright
ENCODING 41
SWIDTH 273 0
DWIDTH 5 0
BBX 5 15 -1 -3
BITMAP
60
30
30
18
18
18
18
18
18
30
30
30
60
60
C0
ENDCHAR

STARTCHAR asterisk
ENCODING 42
SWIDTH 319 0
DWIDTH 5 0
BBX 5 6 0 6
BITMAP
20
A8
F8
70
F8
D8
ENDCHAR

STARTCHAR plus
ENCODING 43
SWIDTH 479 0
DWIDTH 8 0
BBX 8 8 0 2
BITMAP
18
18
18
FF
FF
18
18
18
ENDCHAR

STARTCHAR comma
ENCODING 44
SWIDTH 228 0
DWIDTH 4 0
BBX 3 5 0 -3
BITMAP
60
60
20
40
80
ENDCHAR

STARTCHAR minus
ENCODING 45
SWIDTH 479 0
DWIDTH 8 0
BBX 7 2 1 5
BITMAP
FE
FE
ENDCHAR

STARTCHAR period
ENCODING 46
SWIDTH 228 0
DWIDTH 4 0
BBX 2 2 1 0
BITMAP
C0
C0
ENDCHAR

STARTCHAR slash
ENCODING 47
SWIDTH 228 0
DWIDTH 4 0
BBX 4 13 0 -1
BITMAP
30
30
30
30
30
60
60
60
C0
C0
C0
C0
C0
ENDCHAR

STARTCHAR zero
ENCODING 48
SWIDTH 456 0
DWIDTH 8 0
BBX 7 12 1 0
BITMAP
1C
3E
66
66
66
C6
C6
CC
CC
CC
F8
70
ENDCHAR

STARTCHAR one
ENCODING 49
SWIDTH 456 0
DWIDTH 8 0
BBX 5 12 2 0
BITMAP
18
38
78
D8
30
30
30
30
60
60
60
60
ENDCHAR

STARTCHAR two
ENCODING 50
SWIDTH 456 0
DWIDTH 8 0
BBX 7 12 1 0
BITMAP
3C
7E
66
C6
06
0C
18
30
60
C0
FC
FC
ENDCHAR

STARTCHAR three
ENCODING 51
SWIDTH 456 0
DWIDTH 8 0
BBX 8 12 0 0
BITMAP
0E
1F
33
03
06
0C
0E
06
06
CC
7C
38
ENDCHAR

STARTCHAR four
ENCODING 52
SWIDTH 456 0
DWIDTH 8 0
BBX 7 12 1 0
BITMAP
02
06
0E
1C
34
6C
CC
FE
FE
18
18
18
ENDCHAR

STARTCHAR five
ENCODING 53
SWIDTH 456 0
DWIDTH 8 0
BBX 7 12 1 0
BITMAP
3E
3E
30
60
7C
7E
66
06
C6
CC
FC
78
ENDCHAR

STARTCHAR six
ENCODING 54
SWIDTH 456 0
DWIDTH 8 0
BBX 7 12 1 0
BITMAP
1C
3E
66
60
DC
FE
E6
C6
C6
CC
FC
78
ENDCHAR

STARTCHAR seven
ENCODING 55
SWIDTH 456 0
DWIDTH 8 0
BBX 6 12 2 0
BITMAP
FC
FC
18
18
30
30
60
60
60
C0
C0
C0
ENDCHAR

STARTCHAR eight
ENCODING 56
SWIDTH 456 0
DWIDTH 8 0
BBX 7 12 1 0
BITMAP
1C
3E
66
6C
38
38
6C
CC
CC
CC
F8
70
ENDCHAR

STARTCHAR nine
ENCODING 57
SWIDTH 456 0
DWIDTH 8 0
BBX 7 12 1 0
BITMAP
3C
7E
66
C6
C6
CE
FE
76
0C
CC
F8
70
ENDCHAR

STARTCHAR colon
ENCODING 58
SWIDTH 273 0
DWIDTH 5 0
BBX 3 9 1 0
BITMAP
60
60
00
00
00
00
00
C0
C0
ENDCHAR

STARTCHAR semicolon
ENCODING 59
SWIDTH 273 0
DWIDTH 5 0
BBX 4 12 0 -3
BITMAP
30
30
00
00
00
00
00
60
60
20
40
80
ENDCHAR

STARTCHAR less
ENCODING 60
SWIDTH 479 0
DWIDTH 8 0
BBX 7 10 1 1
BITMAP
02
06
1E
78
C0
E0
7C
1E
06
02
ENDCHAR

STARTCHAR equal
ENCODING 61
SWIDTH 479 0
DWIDTH 8 0
BBX 7 6 1 3
BITMAP
FE
FE
00
00
FE
FE
ENDCHAR

STARTCHAR greater
ENCODING 62
SWIDTH 479 0
DWIDTH 8 0
BBX 7 10 1 1
BITMAP
80
C0
F0
3C
06
0E
3C
F0
C0
80
ENDCHAR

STARTCHAR question
ENCODING 63
SWIDTH 501 0
DWIDTH 9 0
BBX 7 12 2 0
BITMAP
38
7C
C6
C6
0E
0C
18
30
30
00
60
60
ENDCHAR

STARTCHAR at
ENCODING 64
SWIDTH 800 0
DWIDTH 14 0
BBX 14 16 0 -4
BITMAP
0FC0
1FE0
3030
6758
CCCC
CCCC
D8CC
D8CC
D8D8
D998
CFF0
C6E0
6018
3018
1FF0
0FE0
ENDCHAR

STARTCHAR A
ENCODING 65
SWIDTH 592 0
DWIDTH 10 0
BBX 9 12 0 0
BITMAP
0300
0700
0F00
0D80
1980
1980
3180
3F80
7F80
6180
C180
C180
ENDCHAR

STARTCHAR B
ENCODING 66
SWIDTH 592 0
DWIDTH 10 0
BBX 9 12 1 0
BITMAP
1F00
1F80
1980
3180
3300
3E00
7F00
6300
6300
C700
FE00
FC00
ENDCHAR

STARTCHAR C
ENCODING 67
SWIDTH 592 0
DWIDTH 10 0
BBX 9 12 2 0
BITMAP
0E00
1F00
3380
6180
6000
C000
C000
C000
C300
C700
7E00
3C00
ENDCHAR

STARTCHAR D
ENCODING 68
SWIDTH 592 0
DWIDTH 10 0
BBX 9 12 1 0
BITMAP
1E00
1F00
1980
3180
3180
3180
6180
6300
6300
C600
FC00
F800
ENDCHAR

STARTCHAR E
ENCODING 69
SWIDTH 547 0
DWIDTH 9 0
BBX 9 12 1 0
BITMAP
1F80
1F80
1800
3000
3000
3F00
7F00
6000
6000
C000
FE00
FE00
ENDCHAR

STARTCHAR F
ENCODING 70
SWIDTH 501 0
DWIDTH 9 0
BBX 9 12 1 0
BITMAP
1F80
1F80
1800
3000
3000
3F00
7F00
6000
6000
C000
C000
C000
ENDCHAR

STARTCHAR G
ENCODING 71
SWIDTH 638 0
DWIDTH 11 0
BBX 10 12 2 0
BITMAP
0F00
1F80
31C0
60C0
6000
C000
C780
C780
C180
C300
7F00
3E00
ENDCHAR

STARTCHAR H
ENCODING 72
SWIDTH 592 0
DWIDTH 10 0
BBX 10 12 1 0
BITMAP
18C0
18C0
18C0
3180
3180
3F80
7F00
6300
6300
C600
C600
C600
ENDCHAR

STARTCHAR I
ENCODING 73
SWIDTH 228 0
DWIDTH 5 0
BBX 5 12 1 0
BITMAP
18
18
18
30
30
30
60
60
60
C0
C0
C0
ENDCHAR

STARTCHAR J
ENCODING 74
SWIDTH 456 0
DWIDTH 8 0
BBX 9 12 0 0
BITMAP
0180
0180
0180
0300
0300
0300
0600
0600
C600
CC00
FC00
7800
ENDCHAR

STARTCHAR K
ENCODING 75
SWIDTH 592 0
DWIDTH 10 0
BBX 10 12 1 0
BITMAP
18C0
1980
1B00
3600
3C00
3800
6C00
6600
6600
C300
C300
C180
ENDCHAR

STARTCHAR L
ENCODING 76
SWIDTH 501 0
DWIDTH 9 0
BBX 7 12 1 0
BITMAP
18
18
18
30
30
30
60
60
60
C0
FE
FE
ENDCHAR

STARTCHAR M
ENCODING 77
SWIDTH 683 0
DWIDTH 13 0
BBX 13 12 1 0
BITMAP
1838
1878
1C58
3CD0
3CB0
2DB0
6D60
6F60
6E60
CEC0
CCC0
CCC0
ENDCHAR

STARTCHAR N
ENCODING 78
SWIDTH 592 0
DWIDTH 10 0
BBX 10 12 1 0
BITMAP
18C0
18C0
18C0
3D80
3580
3580
6500
6500
6700
C600
C600
C600
ENDCHAR

STARTCHAR O
ENCODING 79
SWIDTH 638 0
DWIDTH 11 0
BBX 9 12 2 0
BITMAP
0E00
1F00
3180
6180
6180
C180
C180
C300
C300
C600
7C00
3800
ENDCHAR

STARTCHAR P
ENCODING 80
SWIDTH 547 0
DWIDTH 9 0
BBX 9 12 1 0
BITMAP
1F00
1F80
1980
3180
3180
3F00
7E00
6000
6000
C000
C000
C000
ENDCHAR

STARTCHAR Q
ENCODING 81
SWIDTH 638 0
DWIDTH 11 0
BBX 9 13 2 -1
BITMAP
0E00
1F00
3180
6180
6180
C180
C180
DB00
CF00
C600
7F00
3B00
0180
ENDCHAR

STARTCHAR R
ENCODING 82
SWIDTH 592 0
DWIDTH 10 0
BBX 10 12 1 0
BITMAP
1F80
1FC0
18C0
30C0
3180
3F00
7E00
6C00
6600
C600
C300
C300
ENDCHAR

STARTCHAR S
ENCODING 83
SWIDTH 547 0
DWIDTH 9 0
BBX 9 12 1 0
BITMAP
1E00
3F00
6380
6180
7000
3C00
1E00
0700
C300
C300
FE00
7C00
ENDCHAR

STARTCHAR T
ENCODING 84
SWIDTH 501 0
DWIDTH 8 0
BBX 9 12 2 0
BITMAP
FF80
FF80
0C00
1800
1800
1800
3000
3000
3000
6000
6000
6000
ENDCHAR

STARTCHAR U
ENCODING 85
SWIDTH 592 0
DWIDTH 10 0
BBX 10 12 1 0
BITMAP
18C0
18C0
30C0
3180
3180
6180
6300
6300
C300
C600
FE00
7C00
ENDCHAR

STARTCHAR V
ENCODING 86
SWIDTH 547 0
DWIDTH 9 0
BBX 9 12 2 0
BITMAP
C180
C180
C300
C300
C600
C600
6C00
6C00
7800
7800
7000
7000
ENDCHAR

STARTCHAR W
ENCODING 87
SWIDTH 774 0
DWIDTH 12 0
BBX 13 12 2 0
BITMAP
C618
C618
CE30
CE30
DB60
DB60
F3C0
F3C0
E380
E380
C300
C300
ENDCHAR

STARTCHAR X
ENCODING 88
SWIDTH 547 0
DWIDTH 9 0
BBX 9 12 1 0
BITMAP
6180
6180
3300
3600
3C00
1C00
1C00
3600
6600
6600
C300
C300
ENDCHAR

STARTCHAR Y
ENCODING 89
SWIDTH 547 0
DWIDTH 9 0
BBX 10 12 2 0
BITMAP
C0C0
C180
6300
6300
3600
3C00
1C00
1800
1800
3000
3000
3000
ENDCHAR

STARTCHAR Z
ENCODING 90
SWIDTH 501 0
DWIDTH 9 0
BBX 9 12 1 0
BITMAP
3F80
3F80
0180
0300
0600
0C00
1800
3000
6000
C000
FF00
FF00
ENDCHAR

STARTCHAR bracketleft
ENCODING 91
SWIDTH 273 0
DWIDTH 5 0
BBX 7 15 0 -3
BITMAP
1E
1E
18
18
30
30
30
30
60
60
60
C0
C0
F0
F0
ENDCHAR

STARTCHAR backslash
ENCODING 92
SWIDTH 228 0
DWIDTH 4 0
BBX 4 13 0 -1
BITMAP
C0
C0
C0
C0
C0
60
60
60
30
30
30
30
30
ENDCHAR

STARTCHAR bracketright
ENCODING 93
SWIDTH 273 0
DWIDTH 5 0
BBX 7 15 -1 -3
BITMAP
1E
1E
06
06
0C
0C
0C
0C
18
18
18
30
30
F0
F0
ENDCHAR

STARTCHAR asciicircum
ENCODING 94
SWIDTH 479 0
DWIDTH 8 0
BBX 6 7 1 5
BITMAP
18
18
38
6C
6C
CC
CC
ENDCHAR

STARTCHAR underscore
ENCODING 95
SWIDTH 456 0
DWIDTH 8 0
BBX 8 2 0 -3
BITMAP
FF
FF
ENDCHAR

STARTCHAR quoteleft
ENCODING 96
SWIDTH 228 0
DWIDTH 4 0
BBX 3 5 2 7
BITMAP
20
40
80
C0
C0
ENDCHAR

STARTCHAR a
ENCODING 97
SWIDTH 456 0
DWIDTH 8 0
BBX 7 9 1 0
BITMAP
3C
7E
46
06
7E
CC
CC
FC
74
ENDCHAR

STARTCHAR b
ENCODING 98
SWIDTH 501 0
DWIDTH 9 0
BBX 8 12 1 0
BITMAP
18
18
18
36
3F
33
63
63
66
C6
FC
D8
ENDCHAR

STARTCHAR c
ENCODING 99
SWIDTH 456 0
DWIDTH 8 0
BBX 7 9 1 0
BITMAP
1C
3E
66
60
C0
C0
CC
F8
70
ENDCHAR

STARTCHAR d
ENCODING 100
SWIDTH 501 0
DWIDTH 9 0
BBX 9 12 1 0
BITMAP
0180
0180
0180
1B00
3F00
6300
6600
C600
C600
CC00
FC00
7400
ENDCHAR

STARTCHAR e
ENCODING 101
SWIDTH 456 0
DWIDTH 8 0
BBX 7 9 1 0
BITMAP
1C
3E
66
66
FC
C0
CC
F8
70
ENDCHAR

STARTCHAR f
ENCODING 102
SWIDTH 273 0
DWIDTH 5 0
BBX 7 12 1 0
BITMAP
0E
18
18
7C
30
30
60
60
60
C0
C0
C0
ENDCHAR

STARTCHAR g
ENCODING 103
SWIDTH 501 0
DWIDTH 9 0
BBX 9 12 0 -3
BITMAP
0D80
1F80
3180
3180
6300
6300
6300
7E00
3600
0600
EC00
7800
ENDCHAR

STARTCHAR h
ENCODING 104
SWIDTH 501 0
DWIDTH 9 0
BBX 8 12 1 0
BITMAP
18
18
18
36
3F
33
63
66
66
CC
CC
CC
ENDCHAR

STARTCHAR i
ENCODING 105
SWIDTH 228 0
DWIDTH 5 0
BBX 5 12 1 0
BITMAP
18
18
00
30
30
30
60
60
60
C0
C0
C0
ENDCHAR

STARTCHAR j
ENCODING 106
SWIDTH 228 0
DWIDTH 5 0
BBX 7 15 -1 -3
BITMAP
06
06
00
0C
0C
0C
18
18
18
30
30
30
60
E0
C0
ENDCHAR

STARTCHAR k
ENCODING 107
SWIDTH 456 0
DWIDTH 8 0
BBX 8 12 1 0
BITMAP
18
18
18
33
36
2C
78
70
58
CC
CC
C6
ENDCHAR

STARTCHAR l
ENCODING 108
SWIDTH 228 0
DWIDTH 5 0
BBX 5 12 1 0
BITMAP
18
18
18
30
30
30
60
60
60
C0
C0
C0
ENDCHAR

STARTCHAR m
ENCODING 109
SWIDTH 729 0
DWIDTH 13 0
BBX 12 9 1 0
BITMAP
36E0
3FF0
3330
6630
6660
6660
CCC0
CCC0
CCC0
ENDCHAR

STARTCHAR n
ENCODING 110
SWIDTH 501 0
DWIDTH 9 0
BBX 8 9 1 0
BITMAP
36
3F
33
63
66
66
CC
CC
CC
ENDCHAR

STARTCHAR o
ENCODING 111
SWIDTH 501 0
DWIDTH 9 0
BBX 8 9 1 0
BITMAP
1E
3F
63
63
C3
C6
C6
FC
78
ENDCHAR

STARTCHAR p
ENCODING 112
SWIDTH 501 0
DWIDTH 9 0
BBX 9 12 0 -3
BITMAP
1B00
1F80
1980
3180
3180
3300
6300
7E00
6C00
C000
C000
C000
ENDCHAR

STARTCHAR q
ENCODING 113
SWIDTH 501 0
DWIDTH 9 0
BBX 8 12 1 -3
BITMAP
1B
3F
63
66
C6
C6
CC
FC
6C
18
18
18
ENDCHAR

STARTCHAR r
ENCODING 114
SWIDTH 319 0
DWIDTH 5 0
BBX 6 9 1 0
BITMAP
2C
3C
30
60
60
60
C0
C0
C0
ENDCHAR

STARTCHAR s
ENCODING 115
SWIDTH 456 0
DWIDTH 8 0
BBX 7 9 1 0
BITMAP
3C
76
62
70
38
1C
8C
DC
78
ENDCHAR

STARTCHAR t
ENCODING 116
SWIDTH 273 0
DWIDTH 5 0
BBX 5 11 1 0
BITMAP
30
30
F8
F8
60
60
60
C0
C0
E0
60
ENDCHAR

STARTCHAR u
ENCODING 117
SWIDTH 501 0
DWIDTH 9 0
BBX 8 9 1 0
BITMAP
33
33
63
66
66
C6
CC
FC
6C
ENDCHAR

STARTCHAR v
ENCODING 118
SWIDTH 456 0
DWIDTH 6 0
BBX 7 9 1 0
BITMAP
C6
C6
CC
CC
D8
78
70
70
60
ENDCHAR

STARTCHAR w
ENCODING 119
SWIDTH 638 0
DWIDTH 10 0
BBX 11 9 1 0
BITMAP
CC60
CC60
CCC0
DCC0
DD80
7580
7700
6700
6600
ENDCHAR

STARTCHAR x
ENCODING 120
SWIDTH 456 0
DWIDTH 7 0
BBX 8 9 0 0
BITMAP
63
33
36
1C
18
38
6C
CC
C6
ENDCHAR

STARTCHAR y
ENCODING 121
SWIDTH 456 0
DWIDTH 8 0
BBX 9 12 0 -3
BITMAP
6180
6180
3300
3300
3600
1600
1C00
1C00
1800
3000
F000
E000
ENDCHAR

STARTCHAR z
ENCODING 122
SWIDTH 410 0
DWIDTH 7 0
BBX 8 9 0 0
BITMAP
3F
3F
06
0C
18
30
60
FC
FC
ENDCHAR

STARTCHAR braceleft
ENCODING 123
SWIDTH 319 0
DWIDTH 5 0
BBX 6 15 1 -3
BITMAP
0C
18
30
30
30
30
60
C0
60
60
60
60
60
30
18
ENDCHAR

STARTCHAR bar
ENCODING 124
SWIDTH 230 0
DWIDTH 4 0
BBX 2 17 1 -5
BITMAP
C0
C0
C0
C0
C0
C0
C0
C0
C0
C0
C0
C0
C0
C0
C0
C0
C0
ENDCHAR

STARTCHAR braceright
ENCODING 125
SWIDTH 319 0
DWIDTH 5 0
BBX 6 15 -1 -3
BITMAP
60
30
18
18
18
18
18
0C
18
30
30
30
30
60
C0
ENDCHAR

STARTCHAR asciitilde
ENCODING 126
SWIDTH 479 0
DWIDTH 8 0
BBX 7 3 1 4
BITMAP
72
FE
9C
ENDCHAR

STARTCHAR space
ENCODING 160
SWIDTH 228 0
DWIDTH 5 0
BBX 0 0 0 0
BITMAP
ENDCHAR

STARTCHAR Aogonek
ENCODING 161
SWIDTH 592 0
DWIDTH 10 0
BBX 10 15 1 -3
BITMAP
0300
0700
0F00
0D80
1980
1980
3180
3F80
7F80
6180
C180
C180
0180
01C0
00C0
ENDCHAR

STARTCHAR breve
ENCODING 162
SWIDTH 273 0
DWIDTH 5 0
BBX 5 2 0 10
BITMAP
D8
70
ENDCHAR

STARTCHAR Lslash
ENCODING 163
SWIDTH 501 0
DWIDTH 9 0
BBX 7 12 1 0
BITMAP
18
18
18
34
3C
38
70
E0
60
C0
FE
FE
ENDCHAR

STARTCHAR currency
ENCODING 164
SWIDTH 456 0
DWIDTH 8 0
BBX 6 9 1 2
BITMAP
48
FC
78
CC
CC
CC
78
FC
48
ENDCHAR

STARTCHAR Lcaron
ENCODING 165
SWIDTH 501 0
DWIDTH 9 0
BBX 8 12 1 0
BITMAP
1B
1B
1A
34
30
30
60
60
60
C0
FE
FE
ENDCHAR

STARTCHAR Sacute
ENCODING 166
SWIDTH 547 0
DWIDTH 9 0
BBX 9 15 1 0
BITMAP
0600
0C00
0000
1E00
3F00
6380
6180
7000
3C00
1E00
0700
C300
C300
FE00
7C00
ENDCHAR

STARTCHAR section
ENCODING 167
SWIDTH 456 0
DWIDTH 8 0
BBX 7 15 1 -3
BITMAP
1C
3E
36
30
38
6C
CE
C6
66
3C
18
0C
CC
FC
70
ENDCHAR

STARTCHAR dieresis
ENCODING 168
SWIDTH 273 0
DWIDTH 5 0
BBX 5 2 0 10
BITMAP
D8
D8
ENDCHAR

STARTCHAR Scaron
ENCODING 169
SWIDTH 547 0
DWIDTH 9 0
BBX 9 16 1 0
BITMAP
1B00
0E00
0400
0000
1E00
3F00
6380
6180
7000
3C00
1E00
0700
C300
C300
FE00
7C00
ENDCHAR

STARTCHAR Scommaaccent
ENCODING 170
SWIDTH 547 0
DWIDTH 9 0
BBX 9 17 1 -5
BITMAP
1E00
3F00
6380
6180
7000
3C00
1E00
0700
C300
C300
FE00
7C00
0000
3000
3000
2000
4000
ENDCHAR

STARTCHAR Tcaron
ENCODING 171
SWIDTH 501 0
DWIDTH 8 0
BBX 9 16 2 0
BITMAP
1B00
0E00
0400
0000
FF80
FF80
0C00
1800
1800
1800
3000
3000
3000
6000
6000
6000
ENDCHAR

STARTCHAR Zacute
ENCODING 172
SWIDTH 501 0
DWIDTH 9 0
BBX 9 15 1 0
BITMAP
0300
0600
0000
3F80
3F80
0180
0300
0600
0C00
1800
3000
6000
C000
FF00
FF00
ENDCHAR

STARTCHAR hyphen
ENCODING 173
SWIDTH 273 0
DWIDTH 5 0
BBX 4 2 1 4
BITMAP
F0
F0
ENDCHAR

STARTCHAR Zcaron
ENCODING 174
SWIDTH 501 0
DWIDTH 9 0
BBX 9 16 1 0
BITMAP
1B00
0E00
0400
0000
3F80
3F80
0180
0300
0600
0C00
1800
3000
6000
C000
FF00
FF00
ENDCHAR

STARTCHAR Zdotaccent
ENCODING 175
SWIDTH 501 0
DWIDTH 9 0
BBX 9 15 1 0
BITMAP
0600
0600
0000
3F80
3F80
0180
0300
0600
0C00
1800
3000
6000
C000
FF00
FF00
ENDCHAR

STARTCHAR degree
ENCODING 176
SWIDTH 328 0
DWIDTH 6 0
BBX 5 5 1 7
BITMAP
70
D8
D8
D8
70
ENDCHAR

STARTCHAR aogonek
ENCODING 177
SWIDTH 456 0
DWIDTH 8 0
BBX 7 12 1 -3
BITMAP
3C
7E
46
06
7E
CC
CC
FC
74
0C
0E
06
ENDCHAR

STARTCHAR ogonek
ENCODING 178
SWIDTH 273 0
DWIDTH 5 0
BBX 3 3 1 -3
BITMAP
C0
E0
60
ENDCHAR

STARTCHAR lslash
ENCODING 179
SWIDTH 228 0
DWIDTH 5 0
BBX 6 12 1 0
BITMAP
18
18
18
30
3C
38
F0
E0
60
C0
C0
C0
ENDCHAR

STARTCHAR acute
ENCODING 180
SWIDTH 273 0
DWIDTH 5 0
BBX 3 2 2 10
BITMAP
60
C0
ENDCHAR

STARTCHAR lcaron
ENCODING 181
SWIDTH 325 0
DWIDTH 6 0
BBX 8 12 1 0
BITMAP
1B
1B
1A
34
30
30
60
60
60
C0
C0
C0
ENDCHAR

STARTCHAR sacute
ENCODING 182
SWIDTH 456 0
DWIDTH 8 0
BBX 7 12 1 0
BITMAP
06
0C
00
3C
76
62
70
38
1C
8C
DC
78
ENDCHAR

STARTCHAR caron
ENCODING 183
SWIDTH 273 0
DWIDTH 5 0
BBX 5 3 0 9
BITMAP
D8
70
20
ENDCHAR

STARTCHAR commaaccent
ENCODING 184
SWIDTH 333 0
DWIDTH 6 0
BBX 3 4 1 -5
BITMAP
60
60
40
80
ENDCHAR

STARTCHAR scaron
ENCODING 185
SWIDTH 456 0
DWIDTH 8 0
BBX 7 13 1 0
BITMAP
36
1C
08
00
3C
76
62
70
38
1C
8C
DC
78
ENDCHAR

STARTCHAR scommaaccent
ENCODING 186
SWIDTH 456 0
DWIDTH 8 0
BBX 7 14 1 -5
BITMAP
3C
76
62
70
38
1C
8C
DC
78
00
30
30
20
40
ENDCHAR

STARTCHAR tcaron
ENCODING 187
SWIDTH 393 0
DWIDTH 6 0
BBX 7 11 1 0
BITMAP
36
36
FC
F8
60
60
60
C0
C0
E0
60
ENDCHAR

STARTCHAR zacute
ENCODING 188
SWIDTH 410 0
DWIDTH 7 0
BBX 8 12 0 0
BITMAP
06
0C
00
3F
3F
06
0C
18
30
60
FC
FC
ENDCHAR

STARTCHAR hungarumlaut
ENCODING 189
SWIDTH 273 0
DWIDTH 5 0
BBX 6 2 1 10
BITMAP
6C
D8
ENDCHAR

STARTCHAR zcaron
ENCODING 190
SWIDTH 410 0
DWIDTH 7 0
BBX 8 13 0 0
BITMAP
1B
0E
04
00
3F
3F
06
0C
18
30
60
FC
FC
ENDCHAR

STARTCHAR zdotaccent
ENCODING 191
SWIDTH 410 0
DWIDTH 7 0
BBX 8 12 0 0
BITMAP
06
06
00
3F
3F
06
0C
18
30
60
FC
FC
ENDCHAR

STARTCHAR Racute
ENCODING 192
SWIDTH 592 0
DWIDTH 10 0
BBX 10 15 1 0
BITMAP
0180
0300
0000
1F80
1FC0
18C0
30C0
3180
3F00
7E00
6C00
6600
C600
C300
C300
ENDCHAR

STARTCHAR Aacute
ENCODING 193
SWIDTH 592 0
DWIDTH 10 0
BBX 9 15 1 0
BITMAP
0180
0300
0000
0300
0700
0F00
0D80
1980
1980
3180
3F80
7F80
6180
C180
C180
ENDCHAR

STARTCHAR Acircumflex
ENCODING 194
SWIDTH 592 0
DWIDTH 10 0
BBX 10 16 1 0
BITMAP
0100
0380
06C0
0000
0300
0700
0F00
0D80
1980
1980
3180
3F80
7F80
6180
C180
C180
ENDCHAR

STARTCHAR Abreve
ENCODING 195
SWIDTH 592 0
DWIDTH 10 0
BBX 10 15 1 0
BITMAP
0CC0
0780
0000
0300
0700
0F00
0D80
1980
1980
3180
3F80
7F80
6180
C180
C180
ENDCHAR

STARTCHAR Adieresis
ENCODING 196
SWIDTH 592 0
DWIDTH 10 0
BBX 10 15 1 0
BITMAP
06C0
06C0
0000
0300
0700
0F00
0D80
1980
1980
3180
3F80
7F80
6180
C180
C180
ENDCHAR

STARTCHAR Lacute
ENCODING 197
SWIDTH 501 0
DWIDTH 9 0
BBX 8 15 1 0
BITMAP
03
06
00
18
18
18
30
30
30
60
60
60
C0
FE
FE
ENDCHAR

STARTCHAR Cacute
ENCODING 198
SWIDTH 592 0
DWIDTH 10 0
BBX 9 15 2 0
BITMAP
0300
0600
0000
0E00
1F00
3380
6180
6000
C000
C000
C000
C300
C700
7E00
3C00
ENDCHAR

STARTCHAR Ccedilla
ENCODING 199
SWIDTH 592 0
DWIDTH 10 0
BBX 9 16 2 -4
BITMAP
0E00
1F00
3380
6180
6000
C000
C000
C000
C300
C700
7E00
3C00
1800
0C00
0C00
3800
ENDCHAR

STARTCHAR Ccaron
ENCODING 200
SWIDTH 592 0
DWIDTH 10 0
BBX 9 16 2 0
BITMAP
1B00
0E00
0400
0000
0E00
1F00
3380
6180
6000
C000
C000
C000
C300
C700
7E00
3C00
ENDCHAR

STARTCHAR Eacute
ENCODING 201
SWIDTH 547 0
DWIDTH 9 0
BBX 9 15 1 0
BITMAP
0180
0300
0000
1F80
1F80
1800
3000
3000
3F00
7F00
6000
6000
C000
FE00
FE00
ENDCHAR

STARTCHAR Eogonek
ENCODING 202
SWIDTH 547 0
DWIDTH 9 0
BBX 9 15 1 -3
BITMAP
1F80
1F80
1800
3000
3000
3F00
7F00
6000
6000
C000
FE00
FE00
0C00
0E00
0600
ENDCHAR

STARTCHAR Edieresis
ENCODING 203
SWIDTH 547 0
DWIDTH 9 0
BBX 9 15 1 0
BITMAP
0D80
0D80
0000
1F80
1F80
1800
3000
3000
3F00
7F00
6000
6000
C000
FE00
FE00
ENDCHAR

STARTCHAR Ecaron
ENCODING 204
SWIDTH 547 0
DWIDTH 9 0
BBX 9 16 1 0
BITMAP
0D80
0700
0200
0000
1F80
1F80
1800
3000
3000
3F00
7F00
6000
6000
C000
FE00
FE00
ENDCHAR

STARTCHAR Iacute
ENCODING 205
SWIDTH 228 0
DWIDTH 5 0
BBX 6 15 1 0
BITMAP
0C
18
00
18
18
18
30
30
30
60
60
60
C0
C0
C0
ENDCHAR

STARTCHAR Icircumflex
ENCODING 206
SWIDTH 228 0
DWIDTH 5 0
BBX 7 16 1 0
BITMAP
08
1C
36
00
18
18
18
30
30
30
60
60
60
C0
C0
C0
ENDCHAR

STARTCHAR Dcaron
ENCODING 207
SWIDTH 592 0
DWIDTH 10 0
BBX 9 16 1 0
BITMAP
1B00
0E00
0400
0000
1E00
1F00
1980
3180
3180
3180
6180
6300
6300
C600
FC00
F800
ENDCHAR

STARTCHAR Dcroat
ENCODING 208
SWIDTH 592 0
DWIDTH 10 0
BBX 9 12 1 0
BITMAP
1E00
1F00
1980
3180
3180
FD80
6180
6300
6300
C600
FC00
F800
ENDCHAR

STARTCHAR Nacute
ENCODING 209
SWIDTH 592 0
DWIDTH 10 0
BBX 10 15 1 0
BITMAP
0180
0300
0000
18C0
18C0
18C0
3D80
3580
3580
6500
6500
6700
C600
C600
C600
ENDCHAR

STARTCHAR Ncaron
ENCODING 210
SWIDTH 592 0
DWIDTH 10 0
BBX 10 16 1 0
BITMAP
0D80
0700
0200
0000
18C0
18C0
18C0
3D80
3580
3580
6500
6500
6700
C600
C600
C600
ENDCHAR

STARTCHAR Oacute
ENCODING 211
SWIDTH 638 0
DWIDTH 11 0
BBX 10 15 1 0
BITMAP
0300
0600
0000
0F00
1F80
30C0
60C0
60C0
C0C0
C0C0
C180
C180
C300
7E00
3C00
ENDCHAR

STARTCHAR Ocircumflex
ENCODING 212
SWIDTH 638 0
DWIDTH 11 0
BBX 10 16 1 0
BITMAP
0200
0700
0D80
0000
0F00
1F80
30C0
60C0
60C0
C0C0
C0C0
C180
C180
C300
7E00
3C00
ENDCHAR

STARTCHAR Ohungarumlaut
ENCODING 213
SWIDTH 638 0
DWIDTH 11 0
BBX 10 15 1 0
BITMAP
06C0
0D80
0000
0F00
1F80
30C0
60C0
60C0
C0C0
C0C0
C180
C180
C300
7E00
3C00
ENDCHAR

STARTCHAR Odieresis
ENCODING 214
SWIDTH 638 0
DWIDTH 11 0
BBX 10 15 1 0
BITMAP
0D80
0D80
0000
0F00
1F80
30C0
60C0
60C0
C0C0
C0C0
C180
C180
C300
7E00
3C00
ENDCHAR

STARTCHAR multiply
ENCODING 215
SWIDTH 479 0
DWIDTH 8 0
BBX 6 8 1 3
BITMAP
CC
CC
78
30
78
CC
CC
CC
ENDCHAR

STARTCHAR Rcaron
ENCODING 216
SWIDTH 592 0
DWIDTH 10 0
BBX 10 16 1 0
BITMAP
0D80
0700
0200
0000
1F80
1FC0
18C0
30C0
3180
3F00
7E00
6C00
6600
C600
C300
C300
ENDCHAR

STARTCHAR Uring
ENCODING 217
SWIDTH 592 0
DWIDTH 10 0
BBX 10 16 1 0
BITMAP
0380
06C0
06C0
0380
18C0
18C0
30C0
3180
3180
6180
6300
6300
C300
C600
FE00
7C00
ENDCHAR

STARTCHAR Uacute
ENCODING 218
SWIDTH 592 0
DWIDTH 10 0
BBX 10 15 1 0
BITMAP
0180
0300
0000
18C0
18C0
30C0
3180
3180
6180
6300
6300
C300
C600
FE00
7C00
ENDCHAR

STARTCHAR Uhungarumlaut
ENCODING 219
SWIDTH 592 0
DWIDTH 10 0
BBX 11 15 1 0
BITMAP
0660
0CC0
0000
18C0
18C0
30C0
3180
3180
6180
6300
6300
C300
C600
FE00
7C00
ENDCHAR

STARTCHAR Udieresis
ENCODING 220
SWIDTH 592 0
DWIDTH 10 0
BBX 10 15 1 0
BITMAP
0CC0
0CC0
0000
18C0
18C0
30C0
3180
3180
6180
6300
6300
C300
C600
FE00
7C00
ENDCHAR

STARTCHAR Yacute
ENCODING 221
SWIDTH 547 0
DWIDTH 9 0
BBX 10 15 2 0
BITMAP
0600
0C00
0000
C0C0
C180
6300
6300
3600
3C00
1C00
1800
1800
3000
3000
3000
ENDCHAR

STARTCHAR Tcommaaccent
ENCODING 222
SWIDTH 501 0
DWIDTH 8 0
BBX 10 17 1 -5
BITMAP
7FC0
7FC0
0600
0C00
0C00
0C00
1800
1800
1800
3000
3000
3000
0000
6000
6000
4000
8000
ENDCHAR

STARTCHAR germandbls
ENCODING 223
SWIDTH 501 0
DWIDTH 9 0
BBX 8 12 1 0
BITMAP
0E
1F
1B
33
33
36
6C
6E
66
C6
DC
D8
ENDCHAR

STARTCHAR racute
ENCODING 224
SWIDTH 319 0
DWIDTH 5 0
BBX 6 12 1 0
BITMAP
0C
18
00
2C
3C
30
60
60
60
C0
C0
C0
ENDCHAR

STARTCHAR aacute
ENCODING 225
SWIDTH 456 0
DWIDTH 8 0
BBX 7 12 1 0
BITMAP
0C
18
00
3C
7E
46
06
7E
CC
CC
FC
74
ENDCHAR

STARTCHAR acircumflex
ENCODING 226
SWIDTH 456 0
DWIDTH 8 0
BBX 7 13 1 0
BITMAP
08
1C
36
00
3C
7E
46
06
7E
CC
CC
FC
74
ENDCHAR

STARTCHAR abreve
ENCODING 227
SWIDTH 456 0
DWIDTH 8 0
BBX 7 12 1 0
BITMAP
36
1C
00
3C
7E
46
06
7E
CC
CC
FC
74
ENDCHAR

STARTCHAR adieresis
ENCODING 228
SWIDTH 456 0
DWIDTH 8 0
BBX 7 12 1 0
BITMAP
36
36
00
3C
7E
46
06
7E
CC
CC
FC
74
ENDCHAR

STARTCHAR lacute
ENCODING 229
SWIDTH 228 0
DWIDTH 5 0
BBX 6 15 1 0
BITMAP
0C
18
00
18
18
18
30
30
30
60
60
60
C0
C0
C0
ENDCHAR

STARTCHAR cacute
ENCODING 230
SWIDTH 456 0
DWIDTH 8 0
BBX 7 12 1 0
BITMAP
06
0C
00
1C
3E
66
60
C0
C0
CC
F8
70
ENDCHAR

STARTCHAR ccedilla
ENCODING 231
SWIDTH 456 0
DWIDTH 8 0
BBX 7 12 1 -3
BITMAP
1C
3E
66
60
C0
C0
CC
F8
70
60
30
E0
ENDCHAR

STARTCHAR ccaron
ENCODING 232
SWIDTH 456 0
DWIDTH 8 0
BBX 7 13 1 0
BITMAP
36
1C
08
00
1C
3E
66
60
C0
C0
CC
F8
70
ENDCHAR

STARTCHAR eacute
ENCODING 233
SWIDTH 456 0
DWIDTH 8 0
BBX 7 12 1 0
BITMAP
0C
18
00
1C
3E
66
66
FC
C0
CC
F8
70
ENDCHAR

STARTCHAR eogonek
ENCODING 234
SWIDTH 456 0
DWIDTH 8 0
BBX 7 12 1 -3
BITMAP
1C
3E
66
66
FC
C0
CC
F8
70
60
70
30
ENDCHAR

STARTCHAR edieresis
ENCODING 235
SWIDTH 456 0
DWIDTH 8 0
BBX 7 12 1 0
BITMAP
36
36
00
1C
3E
66
66
FC
C0
CC
F8
70
ENDCHAR

STARTCHAR ecaron
ENCODING 236
SWIDTH 456 0
DWIDTH 8 0
BBX 7 13 1 0
BITMAP
36
1C
08
00
1C
3E
66
66
FC
C0
CC
F8
70
ENDCHAR

STARTCHAR iacute
ENCODING 237
SWIDTH 228 0
DWIDTH 5 0
BBX 6 12 1 0
BITMAP
0C
18
00
30
30
30
60
60
60
C0
C0
C0
ENDCHAR

STARTCHAR icircumflex
ENCODING 238
SWIDTH 228 0
DWIDTH 5 0
BBX 6 13 1 0
BITMAP
10
38
6C
00
30
30
30
60
60
60
C0
C0
C0
ENDCHAR

STARTCHAR dcaron
ENCODING 239
SWIDTH 607 0
DWIDTH 11 0
BBX 12 12 1 0
BITMAP
01B0
01B0
01A0
1B40
3F00
6300
6600
C600
C600
CC00
FC00
7400
ENDCHAR

STARTCHAR dcroat
ENCODING 240
SWIDTH 501 0
DWIDTH 9 0
BBX 10 12 1 0
BITMAP
0180
07C0
0180
1B00
3F00
6300
6600
C600
C600
CC00
FC00
7400
ENDCHAR

STARTCHAR nacute
ENCODING 241
SWIDTH 501 0
DWIDTH 9 0
BBX 8 12 1 0
BITMAP
03
06
00
36
3F
33
63
66
66
CC
CC
CC
ENDCHAR

STARTCHAR ncaron
ENCODING 242
SWIDTH 501 0
DWIDTH 9 0
BBX 8 13 1 0
BITMAP
1B
0E
04
00
36
3F
33
63
66
66
CC
CC
CC
ENDCHAR

STARTCHAR oacute
ENCODING 243
SWIDTH 501 0
DWIDTH 9 0
BBX 8 12 1 0
BITMAP
06
0C
00
1E
3F
63
63
C6
C6
C6
FC
78
ENDCHAR

STARTCHAR ocircumflex
ENCODING 244
SWIDTH 501 0
DWIDTH 9 0
BBX 8 13 1 0
BITMAP
04
0E
1B
00
1E
3F
63
63
C6
C6
C6
FC
78
ENDCHAR

STARTCHAR ohungarumlaut
ENCODING 245
SWIDTH 501 0
DWIDTH 9 0
BBX 9 12 1 0
BITMAP
1980
3300
0000
1E00
3F00
6300
6300
C600
C600
C600
FC00
7800
ENDCHAR

STARTCHAR odieresis
ENCODING 246
SWIDTH 501 0
DWIDTH 9 0
BBX 8 12 1 0
BITMAP
1B
1B
00
1E
3F
63
63
C6
C6
C6
FC
78
ENDCHAR

STARTCHAR divide
ENCODING 247
SWIDTH 479 0
DWIDTH 8 0
BBX 6 8 1 2
BITMAP
30
30
00
FC
FC
00
30
30
ENDCHAR

STARTCHAR rcaron
ENCODING 248
SWIDTH 319 0
DWIDTH 5 0
BBX 6 13 1 0
BITMAP
6C
38
10
00
2C
3C
30
60
60
60
C0
C0
C0
ENDCHAR

STARTCHAR uring
ENCODING 249
SWIDTH 501 0
DWIDTH 9 0
BBX 8 13 1 0
BITMAP
0E
1B
1B
0E
33
33
63
66
66
C6
CC
FC
6C
ENDCHAR

STARTCHAR uacute
ENCODING 250
SWIDTH 501 0
DWIDTH 9 0
BBX 8 12 1 0
BITMAP
06
0C
00
33
33
63
66
66
C6
CC
FC
6C
ENDCHAR

STARTCHAR uhungarumlaut
ENCODING 251
SWIDTH 501 0
DWIDTH 9 0
BBX 10 12 1 0
BITMAP
0CC0
1980
0000
3300
3300
6300
6600
6600
C600
CC00
FC00
6C00
ENDCHAR

STARTCHAR udieresis
ENCODING 252
SWIDTH 501 0
DWIDTH 9 0
BBX 8 12 1 0
BITMAP
33
33
00
33
33
63
66
66
C6
CC
FC
6C
ENDCHAR

STARTCHAR yacute
ENCODING 253
SWIDTH 456 0
DWIDTH 8 0
BBX 9 15 0 -3
BITMAP
0600
0C00
0000
6180
6180
3300
3300
3600
1600
1C00
1C00
1800
3000
F000
E000
ENDCHAR

STARTCHAR tcommaaccent
ENCODING 254
SWIDTH 273 0
DWIDTH 5 0
BBX 6 16 0 -5
BITMAP
18
18
7C
7C
30
30
30
60
60
70
30
00
60
60
40
80
ENDCHAR

STARTCHAR dotaccent
ENCODING 255
SWIDTH 273 0
DWIDTH 5 0
BBX 2 2 2 10
BITMAP
C0
C0
ENDCHAR
ENDFONT
